<mxfile host="app.diagrams.net" agent="Mozilla/5.0 (Windows NT 10.0; Win64; x64) AppleWebKit/537.36 (KHTML, like Gecko) Chrome/140.0.0.0 Safari/537.36 Edg/140.0.0.0" version="28.2.5">
  <diagram name="Page-1" id="Fvg_NSWDdtUZD7GSg1-K">
    <mxGraphModel dx="1034" dy="570" grid="1" gridSize="10" guides="1" tooltips="1" connect="1" arrows="1" fold="1" page="1" pageScale="1" pageWidth="850" pageHeight="1100" math="0" shadow="0">
      <root>
        <mxCell id="0" />
        <mxCell id="1" parent="0" />
        <mxCell id="qB33sY6UfDYcWGLF7d84-13" style="edgeStyle=orthogonalEdgeStyle;rounded=0;orthogonalLoop=1;jettySize=auto;html=1;entryX=0.5;entryY=0;entryDx=0;entryDy=0;" edge="1" parent="1" source="qB33sY6UfDYcWGLF7d84-4" target="qB33sY6UfDYcWGLF7d84-5">
          <mxGeometry relative="1" as="geometry" />
        </mxCell>
        <mxCell id="qB33sY6UfDYcWGLF7d84-4" value="&lt;font style=&quot;font-size: 14px;&quot;&gt;&lt;b style=&quot;&quot;&gt;PLAN&lt;/b&gt;&lt;/font&gt;" style="ellipse;whiteSpace=wrap;html=1;aspect=fixed;fillColor=#33FF33;" vertex="1" parent="1">
          <mxGeometry x="360" y="10" width="80" height="80" as="geometry" />
        </mxCell>
        <mxCell id="qB33sY6UfDYcWGLF7d84-14" style="edgeStyle=orthogonalEdgeStyle;rounded=0;orthogonalLoop=1;jettySize=auto;html=1;entryX=0.5;entryY=0;entryDx=0;entryDy=0;" edge="1" parent="1" source="qB33sY6UfDYcWGLF7d84-5" target="qB33sY6UfDYcWGLF7d84-6">
          <mxGeometry relative="1" as="geometry" />
        </mxCell>
        <mxCell id="qB33sY6UfDYcWGLF7d84-5" value="&lt;b&gt;&lt;font style=&quot;font-size: 14px;&quot;&gt;DEVELOP&lt;/font&gt;&lt;/b&gt;" style="ellipse;whiteSpace=wrap;html=1;aspect=fixed;fillColor=#FF3333;" vertex="1" parent="1">
          <mxGeometry x="360" y="130" width="80" height="80" as="geometry" />
        </mxCell>
        <mxCell id="qB33sY6UfDYcWGLF7d84-15" style="edgeStyle=orthogonalEdgeStyle;rounded=0;orthogonalLoop=1;jettySize=auto;html=1;" edge="1" parent="1" source="qB33sY6UfDYcWGLF7d84-6" target="qB33sY6UfDYcWGLF7d84-7">
          <mxGeometry relative="1" as="geometry" />
        </mxCell>
        <mxCell id="qB33sY6UfDYcWGLF7d84-6" value="&lt;b&gt;&lt;font style=&quot;font-size: 14px;&quot;&gt;BUILD&lt;/font&gt;&lt;/b&gt;" style="ellipse;whiteSpace=wrap;html=1;aspect=fixed;fillColor=#3333FF;" vertex="1" parent="1">
          <mxGeometry x="360" y="250" width="80" height="80" as="geometry" />
        </mxCell>
        <mxCell id="qB33sY6UfDYcWGLF7d84-16" style="edgeStyle=orthogonalEdgeStyle;rounded=0;orthogonalLoop=1;jettySize=auto;html=1;entryX=0.5;entryY=0;entryDx=0;entryDy=0;" edge="1" parent="1" source="qB33sY6UfDYcWGLF7d84-7" target="qB33sY6UfDYcWGLF7d84-8">
          <mxGeometry relative="1" as="geometry" />
        </mxCell>
        <mxCell id="qB33sY6UfDYcWGLF7d84-7" value="&lt;b&gt;&lt;font style=&quot;font-size: 14px;&quot;&gt;TEST&lt;/font&gt;&lt;/b&gt;" style="ellipse;whiteSpace=wrap;html=1;aspect=fixed;fillColor=#99004D;" vertex="1" parent="1">
          <mxGeometry x="360" y="360" width="80" height="80" as="geometry" />
        </mxCell>
        <mxCell id="qB33sY6UfDYcWGLF7d84-17" style="edgeStyle=orthogonalEdgeStyle;rounded=0;orthogonalLoop=1;jettySize=auto;html=1;entryX=0.5;entryY=0;entryDx=0;entryDy=0;" edge="1" parent="1" source="qB33sY6UfDYcWGLF7d84-8" target="qB33sY6UfDYcWGLF7d84-9">
          <mxGeometry relative="1" as="geometry" />
        </mxCell>
        <mxCell id="qB33sY6UfDYcWGLF7d84-8" value="&lt;b&gt;&lt;font style=&quot;font-size: 14px;&quot;&gt;RELEASE&lt;/font&gt;&lt;/b&gt;" style="ellipse;whiteSpace=wrap;html=1;aspect=fixed;fillColor=#FFFF00;" vertex="1" parent="1">
          <mxGeometry x="360" y="480" width="80" height="80" as="geometry" />
        </mxCell>
        <mxCell id="qB33sY6UfDYcWGLF7d84-18" style="edgeStyle=orthogonalEdgeStyle;rounded=0;orthogonalLoop=1;jettySize=auto;html=1;entryX=0.5;entryY=0;entryDx=0;entryDy=0;" edge="1" parent="1" source="qB33sY6UfDYcWGLF7d84-9" target="qB33sY6UfDYcWGLF7d84-10">
          <mxGeometry relative="1" as="geometry" />
        </mxCell>
        <mxCell id="qB33sY6UfDYcWGLF7d84-9" value="&lt;b&gt;&lt;font style=&quot;font-size: 14px;&quot;&gt;DEPLOY&lt;/font&gt;&lt;/b&gt;" style="ellipse;whiteSpace=wrap;html=1;aspect=fixed;fillColor=#FFCCCC;" vertex="1" parent="1">
          <mxGeometry x="360" y="610" width="80" height="80" as="geometry" />
        </mxCell>
        <mxCell id="qB33sY6UfDYcWGLF7d84-19" style="edgeStyle=orthogonalEdgeStyle;rounded=0;orthogonalLoop=1;jettySize=auto;html=1;fillColor=#d5e8d4;strokeColor=#82b366;" edge="1" parent="1" source="qB33sY6UfDYcWGLF7d84-10" target="qB33sY6UfDYcWGLF7d84-11">
          <mxGeometry relative="1" as="geometry" />
        </mxCell>
        <mxCell id="qB33sY6UfDYcWGLF7d84-10" value="&lt;b&gt;&lt;font style=&quot;font-size: 14px;&quot;&gt;OPERATE&lt;/font&gt;&lt;/b&gt;" style="ellipse;whiteSpace=wrap;html=1;aspect=fixed;fillColor=#CC00CC;" vertex="1" parent="1">
          <mxGeometry x="360" y="730" width="80" height="80" as="geometry" />
        </mxCell>
        <mxCell id="qB33sY6UfDYcWGLF7d84-11" value="&lt;b&gt;&lt;font style=&quot;font-size: 14px;&quot;&gt;MONITOR&lt;/font&gt;&lt;/b&gt;" style="ellipse;whiteSpace=wrap;html=1;aspect=fixed;fillColor=#006600;" vertex="1" parent="1">
          <mxGeometry x="360" y="850" width="80" height="80" as="geometry" />
        </mxCell>
      </root>
    </mxGraphModel>
  </diagram>
</mxfile>
